<?xml version="1.0" encoding="UTF-8"?>
<svg xmlns="http://www.w3.org/2000/svg" xmlns:xlink="http://www.w3.org/1999/xlink" width="64pt" height="64pt" viewBox="0 0 64 64" version="1.1">
<g id="surface1">
<path style=" stroke:none;fill-rule:nonzero;fill:rgb(14.509804%,72.54902%,60.392157%);fill-opacity:1;" d="M 47.1875 13.015625 C 46.585938 13.015625 46.101562 12.53125 46.101562 11.933594 L 46.101562 5.425781 C 46.101562 4.824219 46.585938 4.339844 47.1875 4.339844 C 47.785156 4.339844 48.269531 4.824219 48.269531 5.425781 L 48.269531 11.933594 C 48.269531 12.53125 47.785156 13.015625 47.1875 13.015625 "/>
<path style=" stroke:none;fill-rule:nonzero;fill:rgb(14.509804%,72.54902%,60.392157%);fill-opacity:1;" d="M 47.1875 6.507812 C 46.808594 6.507812 46.445312 6.3125 46.246094 5.960938 C 45.945312 5.441406 46.128906 4.78125 46.648438 4.484375 L 54.242188 0.144531 C 54.761719 -0.15625 55.421875 0.0273438 55.722656 0.546875 C 56.019531 1.066406 55.839844 1.730469 55.316406 2.027344 L 47.722656 6.367188 C 47.554688 6.464844 47.371094 6.507812 47.1875 6.507812 "/>
<path style=" stroke:none;fill-rule:nonzero;fill:rgb(79.215686%,82.745098%,85.882353%);fill-opacity:1;" d="M 62.371094 18.441406 L 32 18.441406 C 31.402344 18.441406 30.914062 17.957031 30.914062 17.355469 L 30.914062 13.015625 C 30.914062 12.417969 31.402344 11.933594 32 11.933594 L 62.371094 11.933594 C 62.972656 11.933594 63.457031 12.417969 63.457031 13.015625 L 63.457031 17.355469 C 63.457031 17.957031 62.972656 18.441406 62.371094 18.441406 "/>
<path style=" stroke:none;fill-rule:nonzero;fill:rgb(81.960784%,56.078431%,10.196078%);fill-opacity:1;" d="M 38.507812 64 L 5.964844 64 C 4.769531 64 3.796875 63.027344 3.796875 61.832031 L 3.796875 57.492188 L 40.679688 57.492188 L 40.679688 61.832031 C 40.679688 63.027344 39.707031 64 38.507812 64 "/>
<path style=" stroke:none;fill-rule:nonzero;fill:rgb(55.686275%,29.019608%,15.294118%);fill-opacity:1;" d="M 41.707031 57.492188 L 2.769531 57.492188 C 1.539062 57.492188 0.542969 56.496094 0.542969 55.265625 L 0.542969 53.210938 C 0.542969 51.980469 1.539062 50.984375 2.769531 50.984375 L 41.707031 50.984375 C 42.933594 50.984375 43.933594 51.980469 43.933594 53.210938 L 43.933594 55.265625 C 43.933594 56.496094 42.933594 57.492188 41.707031 57.492188 "/>
<path style=" stroke:none;fill-rule:nonzero;fill:rgb(55.686275%,29.019608%,15.294118%);fill-opacity:1;" d="M 3.992188 41.21875 C 2.390625 41.21875 0.90625 42.289062 0.601562 43.859375 C 0.207031 45.902344 1.835938 47.625 3.796875 47.730469 C 5.675781 47.828125 7.050781 46.328125 7.050781 44.476562 L 12.476562 44.476562 C 12.476562 46.273438 13.933594 47.730469 15.730469 47.730469 C 17.527344 47.730469 18.984375 46.273438 18.984375 44.476562 L 25.492188 44.476562 C 25.492188 46.273438 26.949219 47.730469 28.746094 47.730469 C 30.542969 47.730469 32 46.273438 32 44.476562 L 37.425781 44.476562 C 37.425781 46.328125 38.800781 47.828125 40.679688 47.730469 C 42.4375 47.636719 43.933594 46.238281 43.933594 44.476562 C 43.933594 42.777344 42.375 41.21875 40.679688 41.21875 Z M 3.992188 41.21875 "/>
<path style=" stroke:none;fill-rule:nonzero;fill:rgb(46.27451%,66.27451%,26.666667%);fill-opacity:1;" d="M 3.796875 41.21875 L 40.675781 41.21875 L 40.675781 36.882812 L 3.796875 36.882812 Z M 3.796875 41.21875 "/>
<path style=" stroke:none;fill-rule:nonzero;fill:rgb(97.647059%,91.764706%,49.803922%);fill-opacity:1;" d="M 37.421875 44.476562 L 32 44.476562 C 32 46.273438 30.542969 47.730469 28.746094 47.730469 C 26.949219 47.730469 25.492188 46.273438 25.492188 44.476562 L 18.984375 44.476562 C 18.984375 46.273438 17.527344 47.730469 15.730469 47.730469 C 13.929688 47.730469 12.476562 46.273438 12.476562 44.476562 L 7.050781 44.476562 C 7.050781 46.328125 5.671875 47.828125 3.796875 47.730469 L 3.796875 50.984375 L 40.679688 50.984375 L 40.679688 47.730469 C 38.800781 47.828125 37.421875 46.328125 37.421875 44.476562 "/>
<path style=" stroke:none;fill-rule:nonzero;fill:rgb(81.960784%,56.078431%,10.196078%);fill-opacity:1;" d="M 22.238281 23.863281 C 9.21875 23.863281 0.542969 28.339844 0.542969 34.710938 L 0.542969 35.785156 C 0.542969 36.390625 1.035156 36.882812 1.640625 36.882812 L 42.835938 36.882812 C 43.441406 36.882812 43.933594 36.390625 43.933594 35.785156 L 43.933594 34.710938 C 43.933594 28.339844 35.253906 23.863281 22.238281 23.863281 "/>
<path style=" stroke:none;fill-rule:nonzero;fill:rgb(90.196078%,93.333333%,95.294118%);fill-opacity:1;" d="M 32 18.441406 L 32.308594 24.933594 C 39.527344 26.617188 43.933594 30.179688 43.933594 34.710938 L 43.933594 35.785156 C 43.933594 36.390625 43.441406 36.882812 42.835938 36.882812 L 40.679688 36.882812 L 40.679688 41.21875 C 42.375 41.21875 43.933594 42.78125 43.933594 44.476562 C 43.933594 46.238281 42.4375 47.636719 40.679688 47.730469 L 40.679688 50.984375 L 41.703125 50.984375 C 42.933594 50.984375 43.933594 51.980469 43.933594 53.210938 L 43.933594 55.265625 C 43.933594 56.496094 42.933594 57.492188 41.703125 57.492188 L 40.679688 57.492188 L 40.679688 61.832031 C 40.679688 63.027344 39.707031 64 38.507812 64 L 58.136719 64 C 59.292969 64 60.246094 63.09375 60.300781 61.9375 L 62.371094 18.441406 Z M 32 18.441406 "/>
<path style=" stroke:none;fill-rule:nonzero;fill:rgb(14.509804%,72.54902%,60.392157%);fill-opacity:1;" d="M 47.1875 28.203125 C 45.246094 28.203125 43.460938 28.847656 42.015625 29.925781 C 43.246094 31.339844 43.933594 32.949219 43.933594 34.710938 L 43.933594 35.785156 C 43.933594 36.390625 43.441406 36.882812 42.835938 36.882812 L 40.679688 36.882812 L 40.679688 41.21875 C 42.375 41.21875 43.933594 42.777344 43.933594 44.476562 C 43.933594 44.621094 43.90625 44.761719 43.886719 44.902344 C 44.902344 45.320312 46.015625 45.558594 47.1875 45.558594 C 51.980469 45.558594 55.863281 41.675781 55.863281 36.882812 C 55.863281 32.089844 51.980469 28.203125 47.1875 28.203125 "/>
</g>
</svg>
